<svg width="354" height="306" viewBox="0 0 354 306" fill="none" xmlns="http://www.w3.org/2000/svg">
<rect width="354" height="306" fill="#1D1D1F"/>
<ellipse cx="134" cy="110.5" rx="43" ry="42.5" fill="black"/>
<ellipse cx="220" cy="195.5" rx="43" ry="42.5" fill="black"/>
<rect x="177" y="68" width="86" height="85" fill="black"/>
<rect x="91" y="153" width="86" height="85" fill="black"/>
<g filter="url(#filter0_d_2_2)">
<path d="M202.034 91.0909H211.136L220.75 114.545H221.159L230.773 91.0909H239.875V126H232.716V103.278H232.426L223.392 125.83H218.517L209.483 103.193H209.193V126H202.034V91.0909Z" fill="#1D1D1F"/>
</g>
<path d="M121.034 212V177.091H135.011C137.58 177.091 139.722 177.472 141.438 178.233C143.153 178.994 144.443 180.051 145.307 181.403C146.17 182.744 146.602 184.29 146.602 186.04C146.602 187.403 146.33 188.602 145.784 189.636C145.239 190.659 144.489 191.5 143.534 192.159C142.591 192.807 141.511 193.267 140.295 193.54V193.881C141.625 193.937 142.869 194.312 144.028 195.006C145.199 195.699 146.148 196.67 146.875 197.92C147.602 199.159 147.966 200.636 147.966 202.352C147.966 204.205 147.506 205.858 146.585 207.312C145.676 208.756 144.33 209.898 142.545 210.739C140.761 211.58 138.563 212 135.949 212H121.034ZM128.415 205.966H134.432C136.489 205.966 137.989 205.574 138.932 204.79C139.875 203.994 140.347 202.937 140.347 201.619C140.347 200.653 140.114 199.801 139.648 199.062C139.182 198.324 138.517 197.744 137.653 197.324C136.801 196.903 135.784 196.693 134.602 196.693H128.415V205.966ZM128.415 191.699H133.886C134.898 191.699 135.795 191.523 136.58 191.17C137.375 190.807 138 190.295 138.455 189.636C138.92 188.977 139.153 188.188 139.153 187.267C139.153 186.006 138.705 184.989 137.807 184.216C136.92 183.443 135.659 183.057 134.023 183.057H128.415V191.699Z" fill="#1D1D1F"/>
<defs>
<filter id="filter0_d_2_2" x="198.034" y="91.0909" width="45.8409" height="42.9091" filterUnits="userSpaceOnUse" color-interpolation-filters="sRGB">
<feFlood flood-opacity="0" result="BackgroundImageFix"/>
<feColorMatrix in="SourceAlpha" type="matrix" values="0 0 0 0 0 0 0 0 0 0 0 0 0 0 0 0 0 0 127 0" result="hardAlpha"/>
<feOffset dy="4"/>
<feGaussianBlur stdDeviation="2"/>
<feComposite in2="hardAlpha" operator="out"/>
<feColorMatrix type="matrix" values="0 0 0 0 0 0 0 0 0 0 0 0 0 0 0 0 0 0 0.25 0"/>
<feBlend mode="normal" in2="BackgroundImageFix" result="effect1_dropShadow_2_2"/>
<feBlend mode="normal" in="SourceGraphic" in2="effect1_dropShadow_2_2" result="shape"/>
</filter>
</defs>
</svg>
